<svg xmlns="http://www.w3.org/2000/svg" viewBox="0 0 1024 1024"><defs><style>.cls-1{fill:#63adf2;}.cls-2{fill:#f4feff;}.cls-3,.cls-4{fill:none;stroke-miterlimit:10;}.cls-3{stroke:#f4feff;stroke-width:14px;}.cls-4{stroke:#63adf2;stroke-width:40px;}.cls-5,.cls-6{fill:#fff;}.cls-5{opacity:0.8;}.cls-6{opacity:0.9;}</style></defs><title>Prancheta 1</title><g id="Camada_1" data-name="Camada 1"><rect class="cls-1" width="1024" height="1024"/></g><g id="Camada_2" data-name="Camada 2"><path class="cls-2" d="M691.62,927.3l-356.29-1.94c-21.52-.12-50.9-32.48-67.9-72.19C237.56,783.39,294.48,744.64,301.77,627c6.62-107-35.82-150.06.15-212.8,18.76-32.72,47.75-51.45,68.28-61.9H645.68c21.14,10.14,50.12,28.2,68.11,60.18,28.64,50.9-.07,84.59.88,166.44,1.27,109.33,54,178.73,45.45,274.43C758.51,871.32,760,927.67,691.62,927.3Z"/><ellipse class="cls-1" cx="414.97" cy="434.04" rx="27.15" ry="26.58"/><ellipse class="cls-1" cx="622.96" cy="434.04" rx="27.15" ry="26.58"/><path class="cls-3" d="M408.38,434C377.94,279,400.91,153.83,451.79,126.63c29.56-15.8,65.94-16.07,65.94-16.07s40.15-1.2,72.54,14.61c52.34,25.55,79,153.85,36.82,308.87"/><path class="cls-3" d="M415,383.34c7.93-157.73,60.49-274,116.5-288.6,32.55-8.5,68-.33,68-.33s39.3,8.14,66.94,31c44.68,37,39.52,167.77-38.91,308.62"/></g><g id="Camada_3" data-name="Camada 3"><path class="cls-1" d="M436.43,805.27l-4.5-.23a19.29,19.29,0,0,1-18.48-20.1l9.72-181.16a19.39,19.39,0,0,1,20.53-18.09l4.5.24A19.28,19.28,0,0,1,466.68,606L457,787.18A19.39,19.39,0,0,1,436.43,805.27Z"/><path class="cls-4" d="M484,602.6c69.55,0,125.93,42.62,125.93,95.18S553.59,793,484,793"/></g><g id="Camada_5" data-name="Camada 5"><path class="cls-5" d="M626.77,904.19a5.9,5.9,0,0,1-1.56-2.79c-3.34-16.08,36.1-31.14,45.29-65.11C676.81,813,662.16,801.18,673,782c7.17-12.65,20.08-19.08,29.54-22.5,8.77,6.44,31.1,24.1,41.95,49.18,7.23,16.7,6.32,29.64,5.42,35.57-1.54,10-5.52,16.39-9.55,22.7C735,875.37,724,892,697.44,902.38a129.24,129.24,0,0,1-35.57,8.06C638.75,911.26,630.12,907.83,626.77,904.19Z"/><path class="cls-5" d="M364.94,744.49c10.7,12.73,6.94,17.49,17.62,35.23,3.54,5.88,20.83,34.63,52.85,49,14.1,6.34,21.35,5.53,29.1,14.55,6.82,7.94,11.59,20.66,8.43,33.71-3.85,15.89-17.3,23.33-22.21,26-8.64,4.77-16.43,5.43-31.66,6.54-12.95.95-26.2,2.17-43.41-1.53-10.24-2.2-26.32-5.81-43.91-17.36-3.31-2.17-23.3-15.65-35.31-37-27.61-49.14-5.07-126.75,24.58-133.19C340.7,716.21,363.85,743.19,364.94,744.49Z"/><path class="cls-6" d="M677,570.34a4.43,4.43,0,0,1-1.37-1.81c-5.66-12.91,6.18-43.77.78-78.22-3.71-23.62-12.78-27.74-13.55-49.71a81.27,81.27,0,0,1,5.86-33.15c5.26,1.89,19,7.85,30.08,25.51A93.21,93.21,0,0,1,710.5,462.4c2.07,9.63,2.17,17.1,2.24,24.53.09,9.93.11,29.67-7.78,50.65a98.53,98.53,0,0,1-12.17,22.88C683.71,571.39,679.31,572.11,677,570.34Z"/></g></svg>